<?xml version="1.0" encoding="UTF-8" standalone="no"?>
<svg
   width="64"
   height="64"
   viewBox="0 0 63.999997 64"
   id="svg4160"
   version="1.1"
   sodipodi:docname="klipper.svg"
   inkscape:version="1.4.2 (f4327f4, 2025-05-13)"
   xmlns:inkscape="http://www.inkscape.org/namespaces/inkscape"
   xmlns:sodipodi="http://sodipodi.sourceforge.net/DTD/sodipodi-0.dtd"
   xmlns="http://www.w3.org/2000/svg"
   xmlns:svg="http://www.w3.org/2000/svg"
   xmlns:rdf="http://www.w3.org/1999/02/22-rdf-syntax-ns#"
   xmlns:cc="http://creativecommons.org/ns#"
   xmlns:dc="http://purl.org/dc/elements/1.1/">
  <sodipodi:namedview
     pagecolor="#ffffff"
     bordercolor="#666666"
     borderopacity="1"
     objecttolerance="10"
     gridtolerance="10"
     guidetolerance="10"
     inkscape:pageopacity="0"
     inkscape:pageshadow="2"
     inkscape:window-width="1127"
     inkscape:window-height="1211"
     id="namedview8"
     showgrid="false"
     inkscape:zoom="9.453125"
     inkscape:cx="30.730579"
     inkscape:cy="16.026446"
     inkscape:window-x="1846"
     inkscape:window-y="19"
     inkscape:window-maximized="0"
     inkscape:current-layer="layer2"
     inkscape:document-rotation="0"
     inkscape:pagecheckerboard="true"
     inkscape:snap-bbox="true"
     inkscape:bbox-paths="true"
     inkscape:bbox-nodes="true"
     inkscape:snap-bbox-edge-midpoints="true"
     inkscape:snap-bbox-midpoints="true"
     inkscape:showpageshadow="2"
     inkscape:deskcolor="#d1d1d1">
    <inkscape:grid
       type="xygrid"
       id="grid832"
       originx="0"
       originy="0"
       spacingy="1"
       spacingx="1"
       units="px" />
  </sodipodi:namedview>
  <defs
     id="defs4162" />
  <metadata
     id="metadata4165">
    <rdf:RDF>
      <cc:Work
         rdf:about="">
        <dc:format>image/svg+xml</dc:format>
        <dc:type
           rdf:resource="http://purl.org/dc/dcmitype/StillImage" />
        <dc:title />
      </cc:Work>
    </rdf:RDF>
  </metadata>
  <g
     id="layer2"
     style="display:inline;stroke:none"
     transform="translate(-3.5328446,2.2636422)">
    <path
       style="color:#000000;font-style:normal;font-variant:normal;font-weight:normal;font-stretch:normal;font-size:medium;line-height:normal;font-family:sans-serif;font-variant-ligatures:normal;font-variant-position:normal;font-variant-caps:normal;font-variant-numeric:normal;font-variant-alternates:normal;font-variant-east-asian:normal;font-feature-settings:normal;font-variation-settings:normal;text-indent:0;text-align:start;text-decoration:none;text-decoration-line:none;text-decoration-style:solid;text-decoration-color:#000000;letter-spacing:normal;word-spacing:normal;text-transform:none;writing-mode:lr-tb;direction:ltr;text-orientation:mixed;dominant-baseline:auto;baseline-shift:baseline;text-anchor:start;white-space:normal;shape-padding:0;shape-margin:0;inline-size:0;clip-rule:nonzero;display:inline;overflow:visible;visibility:visible;isolation:auto;mix-blend-mode:normal;color-interpolation:sRGB;color-interpolation-filters:linearRGB;solid-color:#000000;solid-opacity:1;vector-effect:none;fill:#b12f35;fill-opacity:1;fill-rule:nonzero;stroke:none;stroke-width:2.99999;stroke-linecap:round;stroke-linejoin:miter;stroke-miterlimit:4;stroke-dasharray:none;stroke-dashoffset:0;stroke-opacity:1;color-rendering:auto;image-rendering:auto;shape-rendering:auto;text-rendering:auto;enable-background:accumulate;stop-color:#000000"
       d="M 25.5058,40.09448 H 36.745837"
       id="path942" />
    <path
       style="fill:#ffffff;stroke-width:0.110256;fill-opacity:1"
       d="M 5.3997347,53.096845 C 5.239139,47.752629 5.4682749,41.617128 6.004785,36.887456 6.2219431,34.972821 6.8088495,31.494086 7.0980537,30.406806 L 7.238242,29.879992 9.2605476,29.489061 c 2.6502934,-0.512374 3.4862544,-0.63382 6.2120304,-0.902596 4.701278,-0.463552 11.4824,-0.637724 16.452832,-0.422583 l 2.239753,0.09694 -1.8856,1.897911 C 31.242479,31.202599 24.794881,37.609739 17.95156,44.396829 L 5.5091573,56.736994 Z M 33.18706,46.294981 C 29.39603,46.13372 23.389625,45.704128 23.157338,45.577803 23.043763,45.516139 30.77551,37.68165 44.048307,24.409119 L 65.119413,3.3383902 65.21214,4.0522413 c 0.05102,0.3926169 0.20762,2.2353834 0.347897,4.0950519 0.323233,4.2832858 0.374072,19.2528948 0.07608,22.4188008 -0.440595,4.682023 -1.027546,8.337945 -1.825176,11.368431 -0.526795,2.001498 -0.274743,1.787001 -2.895334,2.463988 -3.069081,0.79284 -7.359665,1.415702 -12.072212,1.752532 -2.949745,0.210725 -12.106772,0.294993 -15.656398,0.143958 z m 15.803419,-4.553969 c 4.763275,-0.372718 10.486109,-1.305727 10.720503,-1.747807 0.161927,-0.305487 0.677053,-2.885241 0.964327,-4.82971 0.660106,-4.467815 1.011842,-11.74013 0.86054,-17.791431 -0.05301,-2.122434 -0.135753,-3.858972 -0.183664,-3.858972 -0.04791,0 -6.468051,6.381187 -14.266959,14.180406 l -14.179852,14.180405 1.390371,0.05966 c 2.411307,0.103361 12.624028,-0.03039 14.694667,-0.192538 z"
       id="path1" />
  </g>
</svg>
